<svg width="90" height="90" viewBox="0 0 90 90" fill="none" xmlns="http://www.w3.org/2000/svg">
<g id="twemoji:speaking-head">
<path id="Vector" d="M89.595 57.8977C89.597 58.2265 89.5339 58.5524 89.4094 58.8567C89.2848 59.161 89.1013 59.4377 88.8694 59.6708C88.6375 59.9038 88.3618 60.0887 88.0581 60.2148C87.7544 60.3408 87.4288 60.4055 87.1 60.4052L74.6 60.4377C73.9383 60.4377 73.3035 60.1754 72.8349 59.7081C72.3663 59.2409 72.102 58.6069 72.1 57.9452C72.0974 57.2826 72.3579 56.646 72.8243 56.1754C73.2907 55.7047 73.9249 55.4385 74.5875 55.4352L87.0875 55.4027C87.416 55.4017 87.7415 55.4655 88.0454 55.5904C88.3492 55.7153 88.6255 55.8988 88.8584 56.1305C89.0912 56.3622 89.2762 56.6376 89.4026 56.9408C89.529 57.244 89.5944 57.5692 89.595 57.8977ZM85.6275 44.1752C85.7686 44.472 85.8497 44.7936 85.8664 45.1218C85.883 45.4499 85.8348 45.7781 85.7246 46.0876C85.6143 46.3971 85.4441 46.6819 85.2236 46.9255C85.0032 47.1692 84.7369 47.367 84.44 47.5077L73.1475 52.8702C72.5478 53.154 71.8599 53.1879 71.2352 52.9645C70.6104 52.7411 70.1 52.2787 69.8163 51.679C69.5325 51.0792 69.4986 50.3913 69.722 49.7666C69.9454 49.1419 70.4078 48.6315 71.0075 48.3477L82.2975 42.9877C82.8966 42.7036 83.5839 42.6691 84.2084 42.8918C84.8329 43.1145 85.3434 43.5762 85.6275 44.1752ZM85.695 71.6427C85.9767 71.0426 86.0085 70.3553 85.7835 69.7317C85.5584 69.1082 85.095 68.5996 84.495 68.3177L73.1775 63.0127C72.8787 62.8599 72.5522 62.7688 72.2175 62.7449C71.8828 62.7209 71.5466 62.7646 71.2292 62.8733C70.9117 62.9821 70.6193 63.1536 70.3695 63.3777C70.1197 63.6018 69.9176 63.874 69.7753 64.1778C69.6329 64.4817 69.5532 64.8112 69.5408 65.1466C69.5285 65.4819 69.5838 65.8163 69.7034 66.1299C69.8231 66.4434 70.0047 66.7296 70.2373 66.9715C70.4699 67.2134 70.7489 67.4059 71.0575 67.5377L82.3725 72.8452C82.9726 73.1259 83.6596 73.157 84.2826 72.9315C84.9056 72.706 85.4136 72.2425 85.695 71.6427Z" fill="#FA743E"/>
<path id="Vector_2" d="M69.9475 37.1875C66.3975 36.14 63.215 33.32 62.1075 31.5625C60.2075 28.5425 62.5 27.76 61.725 19.34C61.0125 11.6325 50.4 3.34249 37.5 2.49999C31.635 2.11749 25.535 3.31499 19.285 6.73249C3.235 15.51 -3.125 34.0625 9.27 51.98C20.445 68.13 9.96 75.4275 9.96 75.4275C9.96 75.4275 10.375 78.8275 17.245 83.3975C24.1175 87.965 32.5475 84.8675 32.5475 84.8675C32.5475 84.8675 35.3275 74.9825 44.4175 75.8925C50.9325 76.8525 60.0825 75.57 62.395 73.3325C64.5575 71.24 62.0175 68.6175 63.7425 62.7725C57.83 62.1925 54.58 59.375 54.2675 55.4025C60.83 56.04 63.5375 53.9575 65.4125 51.665C65.36 50.315 65.225 47.45 65.095 45.53C70.9 43.85 73.125 38.125 69.9475 37.1875Z" fill="#226699"/>
</g>
</svg>
