<svg width="90" height="90" viewBox="0 0 90 90" fill="none" xmlns="http://www.w3.org/2000/svg">
<g id="twemoji:rocket">
<path id="Vector" d="M2.5 42.5L22.5 25L62.5 27.5L65 67.5L47.5 87.5C47.5 87.5 47.5025 72.5025 32.5 57.5C17.4975 42.4975 2.5 42.5 2.5 42.5Z" fill="#A0041E"/>
<path id="Vector_2" d="M2.4325 87.5001C2.4325 87.5001 2.3425 67.5526 9.895 60.0001C17.4475 52.4476 37.5 52.9676 37.5 52.9676C37.5 52.9676 37.4975 72.5001 29.9975 80.0001C22.4975 87.5001 2.4325 87.5001 2.4325 87.5001Z" fill="#FFAC33"/>
<path id="Vector_3" d="M22.4975 77.5C28.0203 77.5 32.4975 73.0228 32.4975 67.5C32.4975 61.9772 28.0203 57.5 22.4975 57.5C16.9746 57.5 12.4975 61.9772 12.4975 67.5C12.4975 73.0228 16.9746 77.5 22.4975 77.5Z" fill="#FFCC4D"/>
<path id="Vector_4" d="M89.9975 0C89.9975 0 64.9975 0 34.9975 25C19.9975 37.5 19.9975 60 24.9975 65C29.9975 70 52.4975 70 64.9975 55C89.9975 25 89.9975 0 89.9975 0Z" fill="#55ACEE"/>
<path id="Vector_5" d="M67.4975 12.5C65.5735 12.5035 63.6913 13.062 62.0767 14.1086C60.4622 15.1551 59.1838 16.6451 58.395 18.4C59.6834 17.813 61.0817 17.5062 62.4975 17.5C65.1497 17.5 67.6932 18.5536 69.5686 20.4289C71.4439 22.3043 72.4975 24.8478 72.4975 27.5C72.4975 28.965 72.165 30.3475 71.6 31.6C73.3559 30.8135 74.8469 29.536 75.8933 27.9214C76.9397 26.3068 77.4968 24.424 77.4975 22.5C77.4975 19.8478 76.4439 17.3043 74.5686 15.4289C72.6932 13.5536 70.1497 12.5 67.4975 12.5Z" fill="#212121"/>
<path id="Vector_6" d="M20 70.0001C20 70.0001 20 60.0001 22.5 57.5001C25 55.0001 55.0025 30.0026 57.5 32.5001C59.9975 34.9976 34.9975 65.0001 32.4975 67.5001C29.9975 70.0001 20 70.0001 20 70.0001Z" fill="#A0041E"/>
</g>
</svg>
