<svg width="90" height="90" viewBox="0 0 90 90" fill="none" xmlns="http://www.w3.org/2000/svg">
<g id="noto:brain">
<path id="Vector" d="M43.2633 63.0701C43.2633 63.0701 44.5781 68.667 51.8625 72.8295C56.4539 75.4521 66.1078 78.1732 71.0367 74.5311C76.6476 70.3826 77.857 66.2764 78.1242 64.7646C78.3914 63.2529 77.5898 59.0834 77.5898 59.0834L68.3578 55.7998C68.3578 55.7998 53.093 59.5264 52.8258 59.5264C52.5656 59.5334 43.2633 63.0701 43.2633 63.0701Z" fill="#E06767"/>
<path id="Vector_2" d="M77.618 66.5646C77.8219 66.0373 77.9484 65.5873 78.0398 65.2146C76.4086 64.7787 74.5172 64.0756 72.8016 63.3443C72.9422 63.2811 73.0828 63.2178 73.2164 63.1475C74.0601 62.7186 74.8898 62.2193 75.4875 61.4881C76.1344 60.7006 76.4297 59.6811 76.3945 58.6615L68.3578 55.7998C68.3578 55.7998 53.093 59.5264 52.8258 59.5264C52.5586 59.5264 43.2633 63.0631 43.2562 63.0701C43.1367 63.1123 44.1211 65.1795 44.1844 65.285C45.0773 66.9514 47.1305 69.2717 48.5367 70.5303C48.5367 70.5303 47.8898 69.0396 49.1133 68.4842C49.6547 68.2381 50.3086 68.3576 50.864 68.5756C52.2562 69.1311 54 71.2686 58.3594 73.5607C61.3195 75.1217 64.3641 76.317 65.3484 76.2748C66.6633 76.2186 69.0469 75.5787 69.0469 75.5787C69.0469 75.5787 66.0094 75.2904 61.1297 73.0193C59.6531 72.3303 54.1898 69.6443 53.6695 68.1467C53.5219 67.7248 52.9945 66.9795 53.9508 66.5576C55.4133 65.9037 59.4 69.342 62.8242 70.917C66.9023 72.7873 71.3461 74.285 71.3461 74.285C71.8242 73.9193 72.2742 73.5537 72.6961 73.1881C70.425 72.6045 68.2031 71.8029 66.0586 70.8678C63.9211 69.9396 61.8258 68.7373 59.8922 67.4154C58.6617 66.5717 57.8109 65.1514 59.1328 64.9686C61.2984 64.6662 64.0969 66.7264 66.9023 68.1818C69.4336 69.4967 72.4711 70.1014 75.3187 70.46C75.6844 70.0029 76.282 69.1311 76.282 69.1311C76.282 69.1311 75.2062 68.9482 72.0281 68.2451C70.6359 67.9357 69.2859 67.535 68.0484 66.8389C67.725 66.6561 66.593 65.4959 68.1398 64.9615C69.6867 64.4271 71.1562 65.4889 73.4906 66.0303C75.832 66.5857 77.5969 66.6139 77.618 66.5646Z" fill="#B05353"/>
<path id="Vector_3" d="M82.9688 37.4766C82.9688 37.4766 82.793 31.7813 79.7344 26.7399C77.0977 22.3946 73.3359 21.9516 73.3359 21.9516C73.3359 21.9516 72.5906 19.2165 69.975 17.1212C67.3594 15.0259 61.9805 13.2751 61.9805 13.2751C51.2086 8.42351 44.4938 12.3962 44.4938 12.3962C44.4938 12.3962 28.5188 8.59929 15.7289 19.4485C15.7289 19.4485 9.27422 22.486 6.6375 28.2235C5.18203 31.4016 5.80781 36.5837 5.80781 36.5837C1.32891 41.7868 2.55938 50.0274 7.58672 54.1548C9.98438 56.1165 12.9445 57.4173 16.0313 57.7477C17.2406 57.8743 17.8523 57.586 18.3586 58.8165C19.1039 60.6305 19.6875 62.4938 21.1852 63.7946C22.7109 65.1165 24.4898 66.143 26.3813 66.8462C30.0516 68.2032 34.2 68.3509 37.9055 67.022C39.1359 66.579 43.0805 66.5368 43.0805 66.5368C43.0805 66.5368 45.1688 68.2595 52.5797 67.9852C59.9906 67.711 63.1195 64.5118 64.8141 63.9141C66.1149 63.4571 67.7109 62.4516 69.1313 62.7118C69.9398 62.8595 70.6641 63.2743 71.4024 63.6259C73.4695 64.6173 75.7899 65.1587 78.068 64.9477C86.6813 64.1532 87.5883 54.2321 86.7375 47.4118C85.8797 40.5282 82.9688 37.4766 82.9688 37.4766Z" fill="#FFB3B3"/>
<path id="Vector_4" d="M19.35 50.9416C19.1742 51.3424 17.4164 55.1814 15.9398 55.8002C13.3875 56.876 9.43593 54.3166 7.92421 53.6135C7.6289 53.4729 7.43203 53.8244 7.43203 53.8244C7.18593 54.1408 7.82578 54.7947 8.14921 55.0268C9.40078 55.9268 12.4031 57.9658 14.632 58.5213C17.5078 59.2385 19.6664 58.5213 19.6664 58.5213C19.6664 58.5213 20.4539 52.7627 20.5172 52.5025C20.5805 52.2424 20.5172 49.9502 20.5172 49.9502L19.35 50.9416Z" fill="#EA6363"/>
<path id="Vector_5" d="M44.4727 67.1905C44.4727 67.1905 43.0242 66.9655 40.8024 67.0007C38.5805 67.0358 35.4516 67.6757 35.4516 67.6757C35.4516 67.6757 37.6594 66.6702 38.6438 65.7913C39.6281 64.9054 39.825 62.7538 39.6633 61.4741C39.4945 60.1663 39.0516 59.5054 35.7047 58.8093L45.7313 58.2538C42.3703 60.4897 41.7586 65.0952 44.4727 67.1905ZM74.8266 46.0335C73.0828 46.2655 71.3883 45.9351 69.8836 45.0421C69.2297 44.6483 69.1594 43.7202 69.7359 43.221C70.1227 42.8905 70.6781 42.8694 71.107 43.1507C73.5398 44.7468 76.0149 43.6991 77.3367 42.8765C80.7117 40.7741 82.3852 37.0476 82.1602 33.1382C82.8352 34.3335 83.3274 35.6554 83.4469 37.0194C83.7492 40.3312 81.3656 42.9116 78.7008 44.578C77.4281 45.3796 76.1133 45.8647 74.8266 46.0335Z" fill="#F07371"/>
<path id="Vector_6" d="M82.3641 49.3314C81.6047 49.3314 80.782 49.1697 80.0015 48.6916C79.2 48.1994 78.75 47.5385 78.3492 46.7228C78.0187 46.0549 77.5547 45.64 76.7039 45.7033C76.1062 45.7525 75.5297 46.09 74.932 46.0057C75.7266 44.5994 76.9992 43.4744 78.4969 42.8627C79.1859 42.5814 79.9594 42.4057 80.6625 42.6236C80.7398 43.1158 80.4094 43.5729 80.2195 44.0369C79.8891 44.8596 80.0226 45.8439 80.557 46.5471C80.9226 47.0252 81.6187 47.5385 82.2586 47.4963C82.6805 47.4682 82.9758 47.1096 83.3906 47.0744C84.6773 46.983 85.0008 48.8674 83.7351 49.1627C83.3273 49.2611 82.8633 49.3314 82.3641 49.3314ZM69.9891 23.2596C69.4758 23.3229 68.9555 23.2666 68.6883 22.8166C68.3437 22.233 68.632 21.5018 69.2719 21.2768C71.0367 20.658 73.0195 20.7705 74.7422 21.4596C76.2469 22.0643 77.1539 23.0908 77.7516 23.7869C78.3492 24.483 78.757 25.8611 78.757 25.8611C77.2594 24.5604 76.4086 22.5143 69.9891 23.2596ZM63.2531 21.9025C61.7344 21.8393 63.2109 21.9025 63.1969 21.9025C60.7922 21.9025 57.9164 21.0729 57.5297 18.3307C56.8336 13.3385 64.2023 15.2791 66.9023 15.6518C66.9023 15.6518 64.7719 13.465 61.9805 13.2752C60.6797 13.1908 59.3367 13.226 58.0711 13.5635C56.6789 13.9361 55.9758 14.9838 54.7101 15.5041C53.7539 15.8908 52.6641 15.7432 51.6797 15.4479C50.7726 15.1736 47.8266 13.5916 47.7422 15.5604C47.7211 16.1018 48.1078 16.5658 48.6351 16.6432C50.7726 16.9455 53.7258 17.9018 54.8227 19.9408C55.3289 20.876 55.4484 22.008 55.1531 23.0275C55.0125 23.5268 54.8086 24.1666 55.2234 24.483C55.5398 24.7291 56.025 24.5674 56.3133 24.2861C56.6016 24.0049 56.7844 23.6252 57.0726 23.3439C57.9726 22.458 58.7883 23.0908 59.7445 23.4283C60.8484 23.8221 62.0156 24.0119 63.1898 24.0119C63.218 24.0119 61.1297 23.808 63.2672 24.0119C65.3977 24.2088 64.7648 21.9658 63.2531 21.9025ZM29.4539 19.6104C28.2867 18.5557 27.7312 14.4494 31.0851 12.333C31.0851 12.333 29.257 12.3963 27.7312 13.5916C26.4305 14.6111 26.1703 16.376 26.4797 18.2393C26.557 18.7174 26.1844 19.1533 25.6992 19.1252C23.9555 19.0338 22.2187 19.3502 20.7211 20.0393C20.1516 20.3064 19.9547 21.0236 20.2922 21.558C20.4314 21.774 20.6446 21.9318 20.8919 22.0017C21.1392 22.0717 21.4035 22.0489 21.6352 21.9377C23.3156 21.1643 25.7625 20.7494 27.7242 21.2416C29.7141 21.7408 31.1133 22.3174 32.6742 25.0244C32.9414 25.4814 33.518 25.6432 33.9539 25.3479C34.2914 25.1158 34.432 24.6799 34.2914 24.3002C32.9555 20.6158 31.0289 21.0307 29.4539 19.6104ZM33.8062 32.2736C33.7686 32.139 33.7045 32.0133 33.6177 31.9038C33.5309 31.7942 33.4232 31.7031 33.3008 31.6357C33.1783 31.5683 33.0437 31.5259 32.9048 31.5111C32.7658 31.4963 32.6253 31.5093 32.4914 31.5494C30.8039 32.0557 28.3641 31.908 27.2742 30.8111C25.8187 27.4432 24.7148 26.8455 22.95 26.2479C22.2469 26.0088 21.5437 26.6135 21.6141 27.3447C21.6562 27.7596 21.9305 28.1111 22.3312 28.2307C23.5828 28.6033 24.8414 30.2838 25.4883 31.9994C26.0789 33.5533 26.1492 35.5994 24.8133 37.0619C24.4687 37.4416 24.3984 37.99 24.7008 38.4049L24.7148 38.426C25.1016 38.9604 25.875 39.0025 26.325 38.5174C26.8031 37.9971 27.3023 37.3221 27.5133 36.64C27.7312 35.9158 27.668 35.2689 28.2937 34.6924C28.9898 34.0455 29.6508 34.1791 30.4875 34.1791C31.3453 34.1791 32.2664 33.8697 33.075 33.5814C33.6234 33.4057 33.975 32.8221 33.8062 32.2736ZM12.2484 41.808C12.0094 41.808 11.7773 41.801 11.5312 41.7799C8.27578 41.4986 6.56719 39.1572 5.79375 36.5908C5.02031 34.0244 5.67422 31.233 5.67422 31.233C6.65859 38.8268 10.6172 39.5791 11.7141 39.6775C13.7883 39.8604 15.7711 38.9604 16.3125 37.5893C17.1703 35.4236 14.5406 33.3002 13.2539 31.9854C12.4031 31.1135 12.0867 29.6299 12.3117 28.4557C12.4242 27.851 12.6914 27.2604 13.1906 26.8736C13.6828 26.4939 14.9203 26.1494 14.7516 27.2322C14.7023 27.5697 14.4844 27.851 14.3508 28.1604C13.3875 30.3541 16.8117 32.3861 17.7469 34.0103C18.5133 35.3252 18.8508 36.9143 18.2742 38.3627C17.4586 40.4299 14.9906 41.808 12.2484 41.808Z" fill="#F07371"/>
<path id="Vector_7" d="M11.4961 41.2453C12.0656 41.3156 12.6492 41.2172 13.1625 40.964C13.6547 40.725 14.0977 40.3453 14.6391 40.3031C14.8992 40.2891 15.2227 40.4437 15.1805 40.6969C15.1664 40.7883 15.7641 40.957 15.6867 41.0062C14.2875 41.8781 10.7438 42.743 13.1906 49.0219C13.3875 49.5211 13.2328 50.0836 12.7758 50.3578C12.2414 50.6812 11.5313 50.4703 11.2781 49.9008C10.6102 48.4312 10.2867 46.807 10.3078 45.1898C10.3289 43.6148 10.4906 42.2367 9.43594 40.9219C9.32344 40.7883 9.20391 40.5984 9.29532 40.4508C9.35157 40.3594 9.46407 40.3242 9.56954 40.2961C10.0055 40.1836 10.4695 40.0641 10.9125 40.1555C11.1094 40.1976 13.3102 41.4141 13.3313 41.3719M74.2219 51.3984C72.7664 51.2226 71.2688 51.3281 69.8906 51.8484C68.7234 52.2914 67.8516 53.1844 66.5086 52.8891C65.707 52.7133 64.9969 52.2 64.4977 51.5461C63.443 50.175 63.5836 48.7336 63.9773 47.1726C64.3711 45.6258 64.3289 43.8328 63.6328 42.3773C63.45 41.9906 63.1406 41.6461 62.7398 41.5055C62.332 41.3648 61.8328 41.4844 61.5938 41.843C61.3547 42.2086 61.4461 42.6937 61.5305 43.1226C61.8047 44.4375 62.1562 45.8578 61.7625 47.1445C61.3898 48.368 60.8766 49.4648 59.9977 50.407C58.3313 52.2 55.9125 53.0226 53.8242 52.4953C52.2844 52.1086 51.0398 51.0328 50.2031 49.3875C49.9078 48.1008 49.5984 46.4273 48.0023 46.2445C47.6789 46.2094 47.3273 46.2586 47.0813 46.4625C46.8352 46.6734 46.7227 47.0109 46.7227 47.3344C46.7227 48.143 47.4961 48.7476 47.6367 49.5422C48.0797 51.975 46.4625 54.7594 44.0086 56.1094C42.1102 57.157 36.9 57.7476 32.2313 53.8312C32.0344 53.6625 32.0344 53.3391 31.8445 53.1633C31.718 53.0508 31.5563 52.9805 31.3945 52.9523C30.6984 52.8187 29.9742 53.4797 30.0375 54.1828C30.0938 54.8226 30.6211 55.3148 31.0922 55.7508C32.3156 56.8898 31.7672 57.3469 31.5563 57.9586C31.507 58.1133 31.4156 58.2539 31.4016 58.4156C31.3594 58.8656 32.0484 58.718 32.4984 58.6828C32.9484 58.6476 33.3563 58.4015 33.7922 58.275C34.3406 58.1203 36.8508 59.0414 37.343 59.1469C38.7703 59.4562 39.2625 59.5969 40.493 59.5969C42.0328 59.5969 43.3406 60.3914 44.4656 59.3367C46.0688 57.8391 47.3133 56.8617 48.7336 56.3766C49.4367 56.1375 50.2805 56.018 50.8711 56.475C51.293 56.7984 51.4828 57.3398 51.6305 57.8461C51.9328 58.8867 52.1578 59.9484 52.6008 60.9398C53.0438 61.9242 53.7469 62.8453 54.7313 63.2883C55.0406 63.4289 55.3922 63.5203 55.7297 63.443C56.0672 63.3656 56.3625 63.0773 56.3695 62.7398C56.3766 62.5078 56.257 62.2969 56.1305 62.107C55.6453 61.3336 55.0688 60.6164 54.6398 59.8148C54.2109 59.0133 53.9297 58.0781 54.1055 57.1851C54.4289 55.5328 56.3414 55.0687 57.7125 54.6539C59.0273 54.2531 60.3422 53.5008 61.7555 53.5781C62.6414 53.6273 64.5187 54.6609 65.0812 55.35C65.1938 55.4906 65.243 55.6664 65.2711 55.8492C65.5102 57.3328 64.4203 58.6687 63.3867 59.7516C63.2039 59.9414 63.0141 60.2297 63.1688 60.4476C63.225 60.525 63.3094 60.5672 63.3938 60.5953C64.1391 60.8836 65.0109 60.6305 65.6438 60.1453C67.0359 59.0906 67.5211 57.2836 68.7094 56.032C69.6867 55.0125 71.0016 54.3445 72.3305 53.9086C77.0836 52.3476 77.3297 56.0883 78.1805 58.1836C79.0312 60.2789 80.2898 58.8305 80.3039 58.2539C80.3531 55.5187 78.6023 51.9187 74.2219 51.3984Z" fill="#F07371"/>
<path id="Vector_8" d="M29.707 62.5006C28.9828 62.4584 28.5047 61.706 28.8 61.0381C29.2711 59.9693 30.157 58.9076 31.3031 58.092C33.0469 56.8545 34.7906 56.6295 36.5414 57.1287L36.9 58.9146C35.768 58.5912 33.743 58.9498 32.5266 59.8146C31.6477 60.4404 31.043 61.2068 30.7477 61.8467C30.5578 62.2615 30.157 62.5287 29.707 62.5006Z" fill="#F07371"/>
<path id="Vector_9" d="M75.2414 30.0937C75.1078 29.2007 74.4117 28.371 73.5117 28.3429C73.0687 28.3288 72.5766 28.5609 72.457 28.9898C72.4008 29.1796 72.4289 29.3906 72.4359 29.5874C72.4922 31.0499 71.318 32.4632 69.8695 32.6671C68.2312 32.8992 67.0219 31.8867 65.7844 31.0429C64.6031 30.2413 63.1266 29.6999 61.7625 29.3132C58.1273 28.2937 54.9984 28.9757 52.6148 31.9781C51.7289 33.096 50.8852 34.3195 49.6406 35.0085C47.6859 36.0913 43.5586 36.1687 42.3422 34.0452C40.7461 31.2679 40.6898 22.732 45.8086 23.7023C47.3906 24.0046 48.5648 25.3757 48.6773 26.3953C48.7477 27.0421 48.3469 27.6046 47.8336 28.0406C47.6445 28.2028 47.5194 28.4271 47.4807 28.6732C47.4421 28.9193 47.4924 29.1712 47.6227 29.3835C47.9602 29.939 48.7195 30.0585 49.2117 29.6437C50.6531 28.4062 50.8781 27.1054 50.7727 26.1632C50.4422 23.1609 47.0602 21.4663 44.3742 21.389C43.7836 21.3679 43.1016 21.1781 42.8766 20.6226C42.7781 20.3835 42.7922 20.1234 42.7711 19.8703C42.6305 18.0773 40.7953 16.1296 39.3609 15.2015C38.8336 14.857 38.1234 15.082 37.8492 15.6445C37.6172 16.1296 37.8 16.6992 38.25 16.9945C39.6141 17.8945 40.4437 19.2023 40.718 20.8898C41.0273 22.8304 40.6055 24.8132 39.7898 26.5781C39.382 27.464 38.8828 28.3218 38.2992 29.1093C37.8 29.7913 37.0898 30.2484 36.7664 31.064C36.7312 31.1554 36.6961 31.2538 36.7242 31.3453C36.7734 31.521 36.9914 31.5702 37.1742 31.5773C37.6945 31.5984 38.2148 31.4859 38.6789 31.2679C38.4117 32.3015 39.1008 33.307 39.6703 34.207C40.2398 35.107 40.6969 36.3304 40.05 37.1812C40.0219 37.2163 39.9867 37.2515 39.9586 37.2937C38.5734 37.8773 37.2375 38.6718 36.1969 39.7687C34.4039 41.6671 33.075 43.3757 30.4523 44.2195C28.132 44.9718 25.5516 44.8804 23.2945 43.9734C22.8586 43.7976 22.4156 43.5937 21.9445 43.6077C21.4734 43.6218 20.9742 43.9523 20.9602 44.4234C20.9531 44.6624 21.0727 44.8804 21.1781 45.0984C22.3734 47.5242 20.1797 49.0992 19.2445 51.2085C18.3656 53.1773 17.9156 55.3359 17.9156 57.4945C17.9156 59.8499 18.7242 61.5656 21.6422 64.5609C22.9641 65.9109 24.6937 66.7124 26.1492 67.1835C26.6062 67.3312 26.8945 66.7054 26.4867 66.4453C23.4844 64.5327 23.0133 62.8382 22.0992 61.0945C19.9055 56.8968 22.3031 50.4984 26.4305 47.2499C28.0266 45.9984 30.2906 46.0968 32.2172 46.7577C34.2844 47.4679 35.5078 48.9867 37.0617 50.3999C37.4836 50.7867 38.025 51.2015 38.5664 51.0328C39.0586 50.8851 39.3047 50.3015 39.2484 49.7952C39.1922 49.289 38.9039 48.839 38.6297 48.4101C38.3273 47.939 38.025 47.4679 37.7156 46.9968C37.3148 46.3781 36.9 45.7312 36.7734 44.9999C36.6328 44.2054 37.3359 41.4562 44.0156 39.7546C45.1476 39.4663 46.3008 39.5929 47.4398 39.9163C48.9727 40.3523 50.0695 41.4773 51.3562 42.3562C51.7148 42.6023 52.1086 42.8624 52.5445 42.8765C53.093 42.8976 53.6273 42.4828 53.7398 41.9413C53.8945 41.196 53.332 40.5281 52.9594 39.8671C51.7219 37.6874 53.1633 34.7765 54.9844 33.3843C56.6156 32.1468 58.7602 31.6898 60.7922 31.9007C63.8859 32.2171 66.9375 34.2843 67.6476 37.3078C67.8094 37.9898 68.0062 38.8687 68.7023 38.9601C69.4758 39.0656 69.8906 38.032 69.8133 37.2515C69.7359 36.471 69.4828 35.5921 69.968 34.9734C70.193 34.6921 70.5305 34.5304 70.8609 34.3828C71.8102 33.9679 72.8016 33.6234 73.6523 33.0257C74.5031 32.4351 75.2133 31.5281 75.2766 30.4945C75.2695 30.3749 75.2625 30.2343 75.2414 30.0937Z" fill="#EA6363"/>
<path id="Vector_10" d="M37.1672 31.5704C37.6875 31.5915 38.2078 31.479 38.6719 31.2611C38.4047 32.2947 39.0938 33.3001 39.6633 34.2001C40.0781 34.8611 40.6547 36.0353 40.0289 37.2376C40.0289 37.2376 40.9711 36.7103 42.4969 36.2673C44.0227 35.8244 45.5133 35.7259 45.5133 35.7259C44.4305 35.5009 42.8273 34.8892 42.3352 34.0384C40.7391 31.2611 40.6828 22.7251 45.8016 23.6954C47.3836 23.9978 48.5578 25.3689 48.6703 26.3884C48.7406 27.0353 48.3398 27.5978 47.8266 28.0337C47.6375 28.1959 47.5124 28.4202 47.4737 28.6664C47.435 28.9125 47.4854 29.1643 47.6156 29.3767C47.9531 29.9322 48.7125 30.0517 49.2047 29.6369C50.6461 28.3994 50.8711 27.0986 50.7656 26.1564C50.4352 23.154 47.0531 21.4595 44.3672 21.3822C43.7766 21.3611 43.0945 21.1712 42.8695 20.6158C42.7711 20.3767 42.7852 20.1165 42.7641 19.8634C42.6234 18.0704 40.7883 16.1228 39.3539 15.1947C38.8266 14.8501 38.1164 15.0751 37.8422 15.6376C37.6102 16.1228 37.793 16.6923 38.243 16.9876C39.607 17.8876 40.4367 19.1954 40.7109 20.8829C41.0203 22.8236 40.5984 24.8064 39.7828 26.5712C39.375 27.4572 38.8758 28.315 38.2922 29.1025C37.793 29.7845 37.0828 30.2415 36.7594 31.0572C36.7242 31.1486 36.6891 31.247 36.7172 31.3384C36.7664 31.5142 36.9844 31.5634 37.1672 31.5704Z" fill="#F07371"/>
</g>
</svg>
