<svg width="90" height="90" viewBox="0 0 90 90" fill="none" xmlns="http://www.w3.org/2000/svg">
<g id="twemoji:sports-medal" clip-path="url(#clip0_263_405)">
<path id="Vector" d="M45 20L27.5 0H0L35 42.5L63.8025 30.625L45 20Z" fill="#55ACEE"/>
<path id="Vector_2" d="M62.5 0L45 20L58.475 38.28L61.5425 34.5575L90 0H62.5Z" fill="#3B88C3"/>
<path id="Vector_3" d="M58.15 40.065C58.35 39.5225 58.4775 38.945 58.4775 38.3325C58.4775 37.0064 57.9507 35.7347 57.013 34.797C56.0753 33.8593 54.8036 33.3325 53.4775 33.3325H36.81C35.4839 33.3325 34.2121 33.8593 33.2744 34.797C32.3368 35.7347 31.81 37.0064 31.81 38.3325C31.81 38.945 31.935 39.5225 32.1375 40.065C23.9925 44.63 18.4775 53.3325 18.4775 63.3325C18.4775 78.06 30.415 90 45.145 90C59.875 90 71.8125 78.06 71.8125 63.3325C71.81 53.3325 66.2975 44.63 58.15 40.065Z" fill="#FFAC33"/>
<path id="Vector_4" d="M45.145 83.3325C56.1907 83.3325 65.145 74.3782 65.145 63.3325C65.145 52.2868 56.1907 43.3325 45.145 43.3325C34.0993 43.3325 25.145 52.2868 25.145 63.3325C25.145 74.3782 34.0993 83.3325 45.145 83.3325Z" fill="#FFD983"/>
<path id="Vector_5" d="M53.195 76.5851C52.8308 76.5842 52.476 76.4698 52.18 76.2576L45 71.1101L37.8225 76.2576C37.5251 76.4713 37.1679 76.5858 36.8017 76.585C36.4356 76.5842 36.0789 76.468 35.7825 76.2529C35.4861 76.0379 35.265 75.7349 35.1506 75.3871C35.0361 75.0392 35.0342 74.6642 35.145 74.3151L37.8225 65.6751L30.71 60.6626C30.4159 60.445 30.1977 60.1404 30.0862 59.792C29.9747 59.4435 29.9755 59.0689 30.0886 58.7209C30.2016 58.373 30.4211 58.0694 30.7161 57.853C31.0111 57.6366 31.3667 57.5184 31.7325 57.5151L40.5425 57.5026L43.3475 49.0776C43.4623 48.7293 43.684 48.426 43.9812 48.2111C44.2783 47.9961 44.6357 47.8804 45.0025 47.8804C45.3693 47.8804 45.7267 47.9961 46.0238 48.2111C46.321 48.426 46.5427 48.7293 46.6575 49.0776L49.415 57.5026L58.27 57.5151C58.6366 57.5169 58.9933 57.6341 59.2894 57.8503C59.5855 58.0665 59.8058 58.3706 59.9191 58.7192C60.0324 59.0679 60.0328 59.4434 59.9203 59.7923C59.8078 60.1413 59.5881 60.4458 59.2925 60.6626L52.1775 65.6751L54.855 74.3151C54.9391 74.5763 54.9601 74.8536 54.9164 75.1244C54.8727 75.3952 54.7655 75.6518 54.6036 75.8733C54.4417 76.0947 54.2296 76.2746 53.9848 76.3984C53.74 76.5221 53.4693 76.5861 53.195 76.5851Z" fill="#FFAC33"/>
</g>
<defs>
<clipPath id="clip0_263_405">
<rect width="90" height="90" fill="white"/>
</clipPath>
</defs>
</svg>
