<svg width="90" height="90" viewBox="0 0 90 90" fill="none" xmlns="http://www.w3.org/2000/svg">
<g id="noto:watch">
<path id="Vector" d="M78.2789 48.5579H82.7296C83.2078 48.5579 83.6507 48.3188 83.8898 47.904C84.2835 47.236 84.7617 45.9774 84.7617 43.8048C84.7617 41.5337 84.2414 40.1274 83.8335 39.3751C83.6015 38.9462 83.1375 38.686 82.6523 38.686H78.2718C77.5195 38.686 76.9148 39.2978 76.9148 40.0431V47.1938C76.9148 47.9532 77.5265 48.5579 78.2789 48.5579Z" fill="#B0BEC5"/>
<path id="Vector_2" d="M78.2789 48.5579H82.7296C83.2078 48.5579 83.6507 48.3188 83.8898 47.904C84.2835 47.236 84.7617 45.9774 84.7617 43.8048C84.7617 41.5337 84.2414 40.1274 83.8335 39.3751C83.6015 38.9462 83.1375 38.686 82.6523 38.686H78.2718C77.5195 38.686 76.9148 39.2978 76.9148 40.0431V47.1938C76.9148 47.9532 77.5265 48.5579 78.2789 48.5579Z" fill="#90A4AE"/>
<path id="Vector_3" d="M75.1289 48.5579H77.9343C78.2367 48.5579 78.5109 48.3188 78.6656 47.904C78.9117 47.236 79.214 45.9774 79.214 43.8048C79.214 41.5337 78.8836 40.1274 78.6304 39.3751C78.4828 38.9462 78.1945 38.686 77.8851 38.686H75.1218C74.6508 38.686 74.264 39.2978 74.264 40.0431V47.1938C74.2781 47.9532 74.6578 48.5579 75.1289 48.5579Z" fill="#607D8B"/>
<path id="Vector_4" d="M68.4774 17.7819C67.5071 13.5069 64.3782 11.8335 62.3391 11.8335H27.661C25.6219 11.8335 22.493 13.5069 21.5227 17.7819C20.7 21.389 20.2008 25.5444 20.2008 25.5444L45 24.6937L69.8063 25.5444C69.7992 25.5444 69.293 21.389 68.4774 17.7819Z" fill="#78909C"/>
<path id="Vector_5" d="M63.0211 2.82666H26.8313L24.2649 13.5423C23.5055 16.2142 25.5164 18.879 28.2938 18.879H61.643C64.4414 18.879 66.4524 16.1931 65.6578 13.5071L63.0211 2.82666Z" fill="#A06841"/>
<path id="Vector_6" d="M21.5156 72.2532C22.4859 76.5282 25.6148 78.2017 27.6539 78.2017H62.339C64.3781 78.2017 67.507 76.5282 68.4773 72.2532C69.3 68.6462 69.7992 64.4907 69.7992 64.4907L45 65.3415L20.1937 64.4907C20.1937 64.4907 20.7 68.6462 21.5156 72.2532Z" fill="#78909C"/>
<path id="Vector_7" d="M26.9719 87.2018H63.1617L65.7281 76.4861C66.4875 73.8143 64.4765 71.1494 61.6992 71.1494H28.35C25.5515 71.1494 23.5406 73.8354 24.3351 76.5213L26.9719 87.2018Z" fill="#A06841"/>
<path id="Vector_8" d="M61.6992 71.1564H28.35C25.5515 71.1564 23.5406 73.8424 24.3351 76.5283L25.2351 80.1635C27.7804 75.6635 39.2203 80.8033 46.0265 80.0791C54.457 79.1861 58.2398 76.5283 61.4461 78.4197C62.4867 79.0314 63.4429 79.9736 64.6523 80.0158C64.7367 80.0158 64.807 80.0018 64.8914 79.9947L65.7281 76.4932C66.4875 73.8143 64.4765 71.1564 61.6992 71.1564ZM28.35 18.8791H61.6992C64.4976 18.8791 66.5086 16.1932 65.714 13.5072L64.814 9.87207C62.2687 14.3721 50.8289 9.23223 44.0226 9.95645C35.5922 10.8494 31.8093 13.5072 28.6031 11.6158C27.5625 11.0041 26.6062 10.0619 25.3968 10.0197C25.3125 10.0197 25.2421 10.0338 25.1578 10.0408L24.3211 13.5424C23.5546 16.2213 25.5656 18.8791 28.35 18.8791Z" fill="#784D30"/>
<path id="Vector_9" d="M45 78.2366C63.3562 78.2366 78.2367 63.356 78.2367 44.9999C78.2367 26.6438 63.3562 11.7632 45 11.7632C26.6439 11.7632 11.7633 26.6438 11.7633 44.9999C11.7633 63.356 26.6439 78.2366 45 78.2366Z" fill="#B0BEC5"/>
<path id="Vector_10" d="M45.1618 71.6624C59.8871 71.6624 71.8243 59.7252 71.8243 44.9999C71.8243 30.2746 59.8871 18.3374 45.1618 18.3374C30.4365 18.3374 18.4993 30.2746 18.4993 44.9999C18.4993 59.7252 30.4365 71.6624 45.1618 71.6624Z" fill="#FFF3E0"/>
<path id="Vector_11" opacity="0.64" d="M37.4063 17.8947C33.8485 18.9212 28.8703 20.5032 23.5406 26.8736C18.2742 33.1665 17.1914 40.4861 16.8539 45.5345C16.8539 45.5345 13.8164 49.3384 13.6688 48.6282C12.5227 43.1157 14.836 30.797 20.8899 24.2861C27.9352 16.7064 37.1039 14.0204 40.4086 13.5142C40.9852 13.4228 38.4891 17.5782 37.4063 17.8947Z" fill="#ECEFF1"/>
<path id="Vector_12" d="M45 70.2561C58.9487 70.2561 70.2563 58.9485 70.2563 44.9999C70.2563 31.0513 58.9487 19.7437 45 19.7437C31.0514 19.7437 19.7438 31.0513 19.7438 44.9999C19.7438 58.9485 31.0514 70.2561 45 70.2561Z" fill="white"/>
<path id="Vector_13" d="M45.1828 47.8053C46.7322 47.8053 47.9883 46.5492 47.9883 44.9998C47.9883 43.4504 46.7322 42.1943 45.1828 42.1943C43.6334 42.1943 42.3773 43.4504 42.3773 44.9998C42.3773 46.5492 43.6334 47.8053 45.1828 47.8053Z" fill="#563428"/>
<path id="Vector_14" d="M45 25.9944C44.4867 25.9944 44.0719 25.5796 44.0719 25.0663V22.289C44.0719 21.7757 44.4867 21.3608 45 21.3608C45.5133 21.3608 45.9282 21.7757 45.9282 22.289V25.0663C45.9211 25.5796 45.5063 25.9944 45 25.9944ZM45 68.6319C44.4867 68.6319 44.0719 68.2171 44.0719 67.7038V64.9265C44.0719 64.4132 44.4867 63.9983 45 63.9983C45.5133 63.9983 45.9282 64.4132 45.9282 64.9265V67.7038C45.9211 68.2171 45.5063 68.6319 45 68.6319ZM67.7039 45.928H64.9266C64.4133 45.928 63.9985 45.5132 63.9985 44.9999C63.9985 44.4866 64.4133 44.0718 64.9266 44.0718H67.7039C68.2172 44.0718 68.6321 44.4866 68.6321 44.9999C68.6321 45.5132 68.2172 45.928 67.7039 45.928ZM25.0664 45.928H22.2891C21.7758 45.928 21.361 45.5132 21.361 44.9999C21.361 44.4866 21.7758 44.0718 22.2891 44.0718H25.0664C25.5797 44.0718 25.9946 44.4866 25.9946 44.9999C25.9946 45.5132 25.5797 45.928 25.0664 45.928Z" fill="#B2947C"/>
<path id="Vector_15" d="M45 25.9944C44.4867 25.9944 44.0718 25.5796 44.0718 25.0663V22.289C44.0718 21.7757 44.4867 21.3608 45 21.3608C45.5133 21.3608 45.9281 21.7757 45.9281 22.289V25.0663C45.9211 25.5796 45.5062 25.9944 45 25.9944ZM45 68.6319C44.4867 68.6319 44.0718 68.2171 44.0718 67.7038V64.9265C44.0718 64.4132 44.4867 63.9983 45 63.9983C45.5133 63.9983 45.9281 64.4132 45.9281 64.9265V67.7038C45.9211 68.2171 45.5062 68.6319 45 68.6319ZM34.2281 28.2022L32.8429 25.7976C32.7204 25.5849 32.6871 25.3323 32.7503 25.0951C32.8136 24.8579 32.9682 24.6554 33.1804 24.5319C33.3931 24.4094 33.6457 24.3761 33.8829 24.4393C34.1201 24.5026 34.3226 24.6572 34.4461 24.8694L35.8312 27.2741C36.0843 27.7171 35.9367 28.2866 35.4937 28.5397C35.0508 28.7999 34.4883 28.6452 34.2281 28.2022ZM55.5468 65.1304L54.1617 62.7257C54.0391 62.513 54.0058 62.2604 54.0691 62.0232C54.1323 61.786 54.287 61.5835 54.4992 61.4601C54.7119 61.3375 54.9645 61.3042 55.2017 61.3675C55.4389 61.4307 55.6414 61.5854 55.7648 61.7976L57.15 64.2022C57.4031 64.6452 57.2554 65.2147 56.8125 65.4679C56.3695 65.721 55.807 65.5733 55.5468 65.1304Z" fill="#B2947C"/>
<path id="Vector_16" d="M34.2282 28.2022L32.843 25.7975C32.7205 25.5848 32.6872 25.3322 32.7504 25.095C32.8137 24.8578 32.9683 24.6553 33.1805 24.5318C33.3932 24.4093 33.6458 24.376 33.883 24.4392C34.1202 24.5025 34.3227 24.6571 34.4462 24.8693L35.8313 27.274C36.0844 27.717 35.9368 28.2865 35.4938 28.5397C35.0508 28.7998 34.4883 28.6451 34.2282 28.2022ZM55.5469 65.1303L54.1618 62.7256C54.0392 62.5129 54.0059 62.2603 54.0692 62.0231C54.1324 61.7859 54.2871 61.5834 54.4993 61.46C54.712 61.3374 54.9646 61.3041 55.2018 61.3674C55.439 61.4306 55.6415 61.5853 55.7649 61.7975L57.1501 64.2022C57.4032 64.6451 57.2555 65.2147 56.8126 65.4678C56.3696 65.7209 55.8071 65.5732 55.5469 65.1303ZM27.2743 35.8381L24.8696 34.4529C24.4266 34.1998 24.2719 33.6303 24.5321 33.1873C24.7852 32.7443 25.3547 32.5897 25.7977 32.8498L28.2024 34.235C28.6454 34.4881 28.8001 35.0576 28.5399 35.5006C28.2797 35.9365 27.7172 36.0912 27.2743 35.8381ZM64.2024 57.1568L61.7977 55.7717C61.3547 55.5186 61.2001 54.949 61.4602 54.5061C61.7133 54.0631 62.2829 53.9084 62.7258 54.1686L65.1305 55.5537C65.5735 55.8068 65.7282 56.3764 65.468 56.8193C65.2079 57.2623 64.6454 57.41 64.2024 57.1568ZM54.4993 28.5397C54.0563 28.2865 53.9016 27.717 54.1618 27.274L55.5469 24.8693C55.8001 24.4264 56.3696 24.2717 56.8126 24.5318C57.2555 24.785 57.4102 25.3545 57.1501 25.7975L55.7649 28.2022C55.5118 28.6451 54.9422 28.7928 54.4993 28.5397ZM33.1805 65.4678C32.7376 65.2147 32.5829 64.6451 32.843 64.2022L34.2282 61.7975C34.4813 61.3545 35.0508 61.1998 35.4938 61.46C35.9368 61.7131 36.0915 62.2826 35.8313 62.7256L34.4462 65.1303C34.186 65.5732 33.6235 65.7209 33.1805 65.4678ZM61.4532 35.4936C61.3306 35.2809 61.2973 35.0283 61.3606 34.7911C61.4238 34.5539 61.5785 34.3514 61.7907 34.2279L64.1954 32.8428C64.4081 32.7202 64.6607 32.6869 64.8979 32.7502C65.1351 32.8134 65.3376 32.9681 65.461 33.1803C65.7141 33.6233 65.5665 34.1928 65.1235 34.4459L62.7188 35.8311C62.2758 36.0912 61.7133 35.9436 61.4532 35.4936ZM24.5321 56.8193C24.4095 56.6066 24.3762 56.354 24.4395 56.1168C24.5027 55.8796 24.6574 55.6772 24.8696 55.5537L27.2743 54.1686C27.487 54.046 27.7396 54.0127 27.9768 54.076C28.214 54.1392 28.4165 54.2939 28.5399 54.5061C28.793 54.949 28.6454 55.5186 28.2024 55.7717L25.7977 57.1568C25.3547 57.41 24.7852 57.2623 24.5321 56.8193Z" fill="#B2947C"/>
<path id="Vector_17" d="M34.7695 39.1924L45 45.0002" stroke="#563428" stroke-width="0.56075" stroke-miterlimit="10" stroke-linecap="round"/>
<path id="Vector_18" d="M59.611 36.6187L45.4641 44.9999" stroke="#563428" stroke-width="0.3925" stroke-miterlimit="10" stroke-linecap="round"/>
<path id="Vector_19" d="M33.0961 8.43043C37.8422 8.5359 42.5883 7.81871 47.3344 8.05074C48.0094 8.0859 48.6914 8.13512 49.3594 8.01558C50.0274 7.89605 50.6883 7.58668 51.075 7.03121C51.4617 6.47574 51.4969 5.65308 51.0399 5.15387C50.7797 4.86558 50.4 4.72496 50.0274 4.61246C48.0375 4.02887 45.9141 4.21871 43.8469 4.34527C40.3875 4.55621 36.9211 4.58433 33.4617 4.42965C32.182 4.3734 30.3539 3.85308 29.2149 4.60543C28.4274 5.12574 27.9563 6.20855 28.5258 7.0523C29.4117 8.35308 31.718 8.39527 33.0961 8.43043Z" fill="#B7855F"/>
<path id="Vector_20" opacity="0.75" d="M80.0648 42.4967C79.7906 42.4334 79.6289 41.7162 80.2406 41.5545C81.007 41.3576 82.7789 41.442 83.6367 41.5756C84.0867 41.6459 84.2414 42.5248 83.4047 42.5881C82.7156 42.6373 80.332 42.56 80.0648 42.4967ZM80.0156 40.5631C79.4391 40.5139 78.7219 39.3818 79.7133 39.3256C81.0352 39.2482 82.2586 39.3045 82.9406 39.3467C83.7633 39.4029 83.9109 40.542 83.0391 40.5561C82.2305 40.5631 80.6906 40.6264 80.0156 40.5631Z" fill="#FFF3E0"/>
</g>
</svg>
