<svg width="90" height="90" viewBox="0 0 90 90" fill="none" xmlns="http://www.w3.org/2000/svg">
<g id="noto:money-bag">
<path id="Vector" d="M65.7141 27.7382C70.432 26.6906 76.5773 22.0077 77.5125 19.7015C78.0609 18.3515 75.3258 16.2421 74.5945 15.3913C72.9211 13.4507 73.5961 12.4945 74.243 10.1812C74.9812 7.55149 73.2305 4.64759 70.7484 3.50852C68.2664 2.36946 65.2992 2.72806 62.8031 3.83899C60.307 4.94993 58.1766 6.73587 56.0883 8.49368C54.5625 7.5304 52.1297 3.27649 48.1922 6.03977C45.4711 7.94524 45.225 12.0937 45.5766 15.4054C46.3992 23.0484 48.2836 27.014 51.8344 28.0827C56.3203 29.4327 61.2844 28.7226 65.7141 27.7382Z" fill="#FFCA28"/>
<path id="Vector_2" d="M73.3781 5.75146C72.7804 16.0522 62.7328 22.8866 57.9656 25.896L61.0594 28.5538C61.0594 28.5538 63.0211 28.596 65.707 27.7382C70.3125 26.2757 77.0414 22.1413 77.5054 19.7015C78.1875 16.1507 74.5453 16.9241 73.7226 14.1187C73.2937 12.6351 75.8109 9.82959 73.3781 5.75146ZM56.0953 8.50068C56.0953 8.50068 54.3023 6.66553 52.9734 5.82881C52.3125 7.07334 51.8414 8.42334 51.6094 9.81553C51.1945 12.2624 51.6094 15.7358 52.5867 18.3233C52.7414 18.7241 53.3179 18.6608 53.3812 18.239C54.225 12.6772 56.0953 8.50068 56.0953 8.50068Z" fill="#E2A610"/>
<path id="Vector_3" d="M43.5656 26.8312C43.5656 26.8312 21.6352 29.2007 11.7422 48.2414C1.84922 67.282 10.2586 78.8273 19.1602 83.032C28.0617 87.2367 50.4914 88.7203 65.0813 85.2609C79.6711 81.8015 83.3203 74.6297 82.6383 67.7039C81.6469 57.5929 72.2531 51.3773 72.2531 51.3773C72.2531 51.3773 72.6258 38.8898 62.9367 30.7828C54.3375 23.5828 43.5656 26.8312 43.5656 26.8312Z" fill="#FFCA28"/>
<path id="Vector_4" d="M52.5657 58.8726C47.8618 52.9382 42.3071 52.1437 40.5282 50.0132C39.5579 48.853 38.9883 47.6788 39.2063 46.2234C39.4383 44.6765 41.2313 43.6077 42.6235 43.3476C44.2477 43.0382 48.1219 43.1999 51.3774 46.3007C52.1508 47.032 51.8696 48.171 51.8485 49.1906C51.7922 51.3773 54.9211 53.5007 57.4524 51.6726C59.9907 49.8374 58.043 45.7523 56.4047 43.7695C55.1672 42.2718 50.6813 38.9741 45.1055 38.4538C43.5376 38.3062 37.2305 37.371 33.5883 44.2968C32.5407 46.2866 32.154 51.096 37.6383 55.1601C38.7844 56.0109 44.7329 59.0343 46.3852 60.996C49.2469 64.3921 47.2852 67.3804 45.0493 67.7741C38.9532 68.8429 35.5008 65.5452 34.861 63.7382C34.404 62.4515 34.8821 61.0593 34.2915 59.8499C33.6868 58.6054 32.4493 58.1132 31.1415 58.528C26.8524 59.8921 28.2165 64.582 30.1149 67.1624C32.1469 69.9257 34.643 71.5921 37.4485 72.5062C47.918 75.9163 52.9524 70.5304 53.8313 66.5859C54.4782 63.696 54.4079 61.1929 52.5657 58.8726Z" fill="#6B4B46"/>
<path id="Vector_5" d="M50.0344 34.4463C41.1258 53.4728 39.593 77.4986 39.593 77.4986" stroke="#6B4B46" stroke-width="0.9375" stroke-miterlimit="10"/>
<path id="Vector_6" d="M57.4242 22.4718C63.3585 24.4054 64.6734 29.7702 64.2445 31.2327C63.7312 32.9483 57.157 26.2686 47.3835 26.6694C43.9663 26.81 44.9578 24.7147 46.5398 23.5054C48.6281 21.9093 52.1367 20.7561 57.4242 22.4718Z" fill="#6D4C41"/>
<path id="Vector_7" d="M57.4242 22.4718C63.3585 24.4054 64.6734 29.7702 64.2445 31.2327C63.7312 32.9483 57.157 26.2686 47.3835 26.6694C43.9663 26.81 44.9578 24.7147 46.5398 23.5054C48.6281 21.9093 52.1367 20.7561 57.4242 22.4718Z" fill="#6B4B46"/>
<path id="Vector_8" d="M67.8446 41.386C68.5899 40.8727 71.093 41.7587 71.7961 46.6595C72.1407 49.0571 72.2461 51.3774 72.2461 51.3774C72.2461 51.3774 69.293 48.7266 68.3157 46.8634C67.0852 44.5079 66.6071 42.2298 67.8446 41.386Z" fill="#E2A610"/>
</g>
</svg>
